<svg width="320" height="320" viewBox="0 0 320 320" fill="none" xmlns="http://www.w3.org/2000/svg">
<path d="M112.725 175.122L133.783 143.366C128.459 137.138 120.029 132.353 102.874 132.353H56C62.5363 134.369 71.9498 134.993 79.8996 150.735L100.326 187.642L111.455 207.732C111.627 208.04 111.813 208.335 111.993 208.629C106.325 198.813 105.722 186.1 112.725 175.115V175.122Z" fill="#F4B01C"/>
<path d="M264.962 165.407C253.977 172.668 239.857 176.564 215.354 176.564L171.509 176.614L164.549 187.125C154.153 203.412 165.855 224.758 185.177 224.758H201.478C217.945 224.758 232.603 216.915 240.868 203.599L264.954 165.407H264.962Z" fill="#2D3482"/>
<path d="M164.549 187.126L171.509 176.614L225.543 95H195.853C176.768 95 159.003 104.736 148.735 120.83L133.79 143.373L112.732 175.129C105.729 186.107 106.332 198.828 112 208.643C112.179 208.952 112.359 209.253 112.545 209.554C112.574 209.597 112.596 209.64 112.624 209.676C113.464 211.011 114.396 212.281 115.415 213.479C116.032 214.211 116.685 214.914 117.367 215.588C123.035 221.178 130.848 224.765 139.939 224.765H185.191C165.869 224.765 154.167 203.42 164.563 187.133L164.549 187.126Z" fill="#E63E3B"/>
</svg>
